# xmcd CD database file
#
# Track frame offsets:
#	150
#	28808
#	52748
#	75848
#	96246
#	125896
#	143861
#	165622
#	195887
#	216759
#
# Disc length: 3121 seconds
#
# Revision: 0
# Processed by: cddbd v1.5.1PL2 Copyright (c) Steve Scherf et al.
# Submitted via: CDex 1.51
#
DISCID=7e0c2f0a
DTITLE=Pilates and Relax - The Ambient Experience
DYEAR=2005
DGENRE=New Age
TTITLE0=The Machine Of Dreams
TTITLE1=The Lifeless Man
TTITLE2=Memories Of The Journey
TTITLE3=The Tulip
TTITLE4=The Red Music Box
TTITLE5=The Call Of The Temple
TTITLE6=Our Mind
TTITLE7=The Great Duel
TTITLE8=You Dream Of Light
TTITLE9=Whithout The, You Swim
EXTD=YEAR: 2005
EXTT0=
EXTT1=
EXTT2=
EXTT3=
EXTT4=
EXTT5=
EXTT6=
EXTT7=
EXTT8=
EXTT9=
PLAYORDER=
